<svg width="10" height="10" viewBox="0 0 10 10" fill="none" xmlns="http://www.w3.org/2000/svg">
<path d="M0 5.00189C1.18194 4.831 2.55152 4.83756 3.56378 4.1201C4.84062 3.21511 4.7776 1.38058 5.00195 0C5.02988 0.298706 5.07516 0.653818 5.11449 0.952466C5.23205 1.84514 5.35453 2.89255 5.92074 3.62478C6.54524 4.43239 7.53346 4.67636 8.49352 4.81992C8.99439 4.89481 9.49686 4.94014 10 5.00055C9.01978 5.10908 7.90324 5.18828 6.99531 5.56338L6.86364 5.62308C6.64731 5.74072 6.52338 5.80632 6.32543 5.963C5.50306 6.61374 5.30501 7.67337 5.16576 8.65745C5.10562 9.10429 5.05105 9.55181 5.00203 10C4.96362 9.79172 4.94447 9.52297 4.91565 9.30676C4.78456 8.32318 4.69095 7.13841 4.04858 6.33749C3.36922 5.49052 2.24928 5.27389 1.23072 5.14119C0.821014 5.09014 0.410747 5.04371 0 5.00189Z" fill="#F5F5F5"/>
</svg>
